<svg xmlns="http://www.w3.org/2000/svg"  viewBox="0 0 64 64" width="64px" height="64px" baseProfile="basic"><ellipse cx="32" cy="61" opacity=".3" rx="19" ry="3"/><path fill="#548500" d="M19,38.273h-4.136c-2.284,0-4.136-1.852-4.136-4.136l0,0c0-2.284,1.852-4.136,4.136-4.136H19V38.273z"/><path fill="#548500" d="M45,38.273h4.136c2.284,0,4.136-1.852,4.136-4.136l0,0c0-2.284-1.852-4.136-4.136-4.136H45V38.273z"/><path fill="#98c900" d="M37.707,56H26.175c-2.427,0-4.69-1.191-6.018-3.167l-3.982-5.923C15.408,45.771,15,44.439,15,43.077	V24.091l34-1.182v19.64c0,1.301-0.373,2.577-1.076,3.683l-4.101,6.451C42.512,54.745,40.198,56,37.707,56z"/><path d="M43.823,52.683l4.101-6.451C48.627,45.126,49,43.851,49,42.549v-1.182	c-1.995-0.441-4.136,0.359-5.295,2.182l-4.102,6.451C39.211,50.617,38.485,51,37.707,51H33c-2.761,0-5,2.239-5,5h9.707	C40.198,56,42.512,54.745,43.823,52.683z" opacity=".15"/><path fill="#9c34c2" d="M52.987,12.84c-0.06-0.367-0.318-0.671-0.671-0.789L47,10.279V8c0-0.332-0.165-0.642-0.439-0.828	c-0.275-0.187-0.623-0.223-0.932-0.101L41.483,8.73l-1.588-3.177c-0.144-0.288-0.417-0.488-0.734-0.54	c-0.315-0.047-0.64,0.053-0.867,0.28L35.92,7.666l-5.667-4.452c-0.247-0.194-0.57-0.262-0.873-0.181	c-0.303,0.08-0.551,0.298-0.67,0.588l-1.297,3.171l-6.139-1.754c-0.381-0.109-0.792,0.017-1.044,0.323	c-0.253,0.305-0.302,0.731-0.125,1.086l1.122,2.244l-4.063-0.677c-0.397-0.065-0.788,0.109-1.004,0.443	c-0.216,0.335-0.213,0.766,0.008,1.098L17.131,11H13c-0.347,0-0.668,0.18-0.851,0.474c-0.182,0.295-0.199,0.663-0.044,0.973	l1.678,3.355l-2.49,2.49c-0.391,0.391-0.391,1.023,0,1.414l2.387,2.387L11.2,25.4c-0.25,0.333-0.267,0.784-0.045,1.135	c0.222,0.351,0.638,0.531,1.045,0.445l7.641-1.558l-0.785,2.249c-0.129,0.371-0.029,0.783,0.255,1.054C19.5,28.905,19.748,29,20,29	c0.127,0,0.254-0.024,0.376-0.073l8.389-3.403l0.239,2.569c0.03,0.328,0.22,0.62,0.508,0.78s0.636,0.17,0.931,0.023l6.013-2.972	l-0.43,1.849c-0.085,0.367,0.043,0.75,0.331,0.993c0.289,0.242,0.688,0.301,1.035,0.154l8.903-3.79l4.52,0.853	c0.383,0.074,0.769-0.082,0.996-0.396c0.227-0.313,0.252-0.73,0.066-1.069l-2-3.628l1.656-1.043	c0.257-0.162,0.427-0.433,0.461-0.735c0.034-0.302-0.071-0.604-0.287-0.818l-2.185-2.185L52.6,13.8	C52.897,13.577,53.047,13.207,52.987,12.84z"/><path fill="#fff" d="M32.221,8.166c0.371-1.298,0.186-2.619-0.402-3.723l-1.565-1.23	c-0.247-0.194-0.57-0.262-0.873-0.181c-0.303,0.08-0.551,0.298-0.67,0.588l-1.297,3.171l-6.139-1.754	c-0.381-0.109-0.792,0.017-1.044,0.323c-0.253,0.305-0.302,0.731-0.125,1.086l1.122,2.244l-4.063-0.677	c-0.397-0.065-0.788,0.109-1.004,0.443c-0.216,0.335-0.213,0.766,0.008,1.098L17.131,11H13c-0.347,0-0.668,0.18-0.851,0.474	c-0.182,0.295-0.199,0.663-0.044,0.973l1.678,3.355l-2.49,2.49c-0.391,0.391-0.391,1.023,0,1.414l2.387,2.387	c0,0,6.32-10.094,11.736-10.672L26.04,11.6C28.696,12.361,31.463,10.822,32.221,8.166z" opacity=".3"/><path fill="#9c34c2" d="M27.763,34.312l-4.358-2.265c-0.194-0.101-0.435-0.064-0.589,0.096 c-0.525,0.541-0.814,1.236-0.814,1.957c0,1.602,1.377,2.904,3.07,2.904c1.354,0,2.562-0.865,2.939-2.103 C28.081,34.671,27.977,34.424,27.763,34.312z"/><path fill="#9c34c2" d="M41.211,32.144c-0.154-0.16-0.395-0.197-0.589-0.096l-4.358,2.265 c-0.214,0.111-0.318,0.359-0.248,0.59c0.377,1.238,1.586,2.103,2.939,2.103c1.693,0,3.07-1.303,3.07-2.904 C42.025,33.379,41.736,32.685,41.211,32.144z"/><path fill="none" stroke="#fff" stroke-linecap="round" stroke-linejoin="round" stroke-miterlimit="10" stroke-width="3" d="M24.5,11.5c0,0-2.27,0.944-5.635,3.972"/><path fill="#9c34c2" d="M38.917,51H25.083c-1.431,0-2.435-1.529-1.967-2.995l1.114-3.487C24.52,43.61,25.31,43,26.197,43	h11.606c0.887,0,1.677,0.61,1.967,1.518l1.114,3.487C41.352,49.471,40.348,51,38.917,51z"/><path fill="#fff" d="M36,47h-8c-1.105,0-2-0.895-2-2v-2h12v2C38,46.105,37.105,47,36,47z"/><path fill="#fff" d="M36,47h-8c-1.105,0-2,0.895-2,2v2h12v-2C38,47.895,37.105,47,36,47z"/></svg>